<svg width="850" height="736" viewBox="0 0 850 736" fill="none" xmlns="http://www.w3.org/2000/svg">
<g filter="url(#filter0_d_1181_1663)">
<ellipse cx="445" cy="338.122" rx="325" ry="267.878" fill="#F19C79"/>
</g>
<ellipse cx="493.5" cy="454.5" rx="276.5" ry="68.5" fill="black" fill-opacity="0.05"/>
<path d="M252.947 342.371C252.947 342.371 287.175 410.877 337.209 378.427C337.209 378.427 342.006 449.992 348.437 450.867C354.759 451.741 414.277 450.867 414.277 450.867C414.277 450.867 398.58 431.855 390.95 427.703C383.319 423.442 401.196 379.738 414.277 370.232C427.358 360.727 454.173 320.737 460.169 304.02C460.169 304.02 489.492 307.08 506.388 316.804C523.284 326.528 552.061 360.945 573.209 357.777C573.209 357.777 574.408 392.303 569.72 400.17C565.142 408.036 577.896 443.546 579.64 451.741H616.048C616.048 451.741 618.01 441.361 614.195 438.52C610.38 435.679 605.475 434.368 605.148 425.518C604.82 416.668 608.309 360.18 613.868 357.777C619.427 355.373 658.779 331.773 658.779 331.773C658.779 331.773 649.295 413.281 650.058 419.837C650.821 426.392 659.433 453.161 659.433 453.161H699.765C699.765 453.161 690.173 436.116 686.575 434.15C682.978 432.183 690.391 333.193 699.765 319.426C709.14 305.659 721.457 276.596 728.979 251.685C736.5 226.883 735.41 204.156 733.23 193.777C731.05 183.397 709.903 134.339 713.827 129.422C717.751 124.506 739.771 86.3737 737.045 82.2218C734.32 78.0699 724.728 62.0086 722.221 56.5456C719.713 51.0826 712.301 39.0639 695.841 29.8861C679.381 20.7082 626.186 26.062 617.574 30.4324C608.963 34.8028 586.398 53.3771 583.564 69.9846C580.73 86.5922 581.057 87.0293 585.09 96.2072C589.124 105.385 586.616 116.639 586.616 116.639C586.616 116.639 590.105 122.211 591.413 122.43C592.721 122.648 600.46 114.563 600.46 114.563C600.46 114.563 599.697 154.552 580.73 157.284C561.763 160.015 412.424 157.393 381.466 179.573C350.508 201.753 332.74 226.773 329.579 259.333C326.2 291.893 323.802 337.673 252.947 342.371V342.371Z" fill="#EFC48F"/>
<path d="M297.639 361.055C287.501 357.558 278.127 351.877 275.729 350.456C277.473 351.33 292.08 357.886 308.104 354.608C327.943 350.566 334.81 302.491 334.81 302.491C335.9 294.952 336.663 287.741 337.317 281.622C340.043 254.526 349.09 248.516 349.09 248.516C341.351 273.1 353.45 352.423 353.45 352.423L337.317 378.427C290.99 409.457 251.202 338.656 251.202 338.656C251.202 338.656 270.714 362.038 297.639 361.055V361.055Z" fill="#FFE7CF"/>
<path d="M275.729 350.456C275.293 350.238 275.184 350.129 275.184 350.129C275.184 350.129 275.293 350.238 275.729 350.456Z" fill="#FFE7CF"/>
<path d="M460.058 303.911C460.058 303.911 437.711 348.708 418.199 364.442C398.687 380.175 386.26 422.35 390.839 427.703C395.417 433.057 411.986 445.294 411.986 451.959H383.644C383.644 451.959 395.526 446.605 383.644 436.663C371.762 426.72 364.568 430.107 361.734 418.198C358.9 406.288 368.492 380.94 383.644 372.745C398.796 364.551 425.83 328.386 429.645 320.737C433.46 313.089 434.441 307.845 434.441 307.845C434.441 307.845 456.788 303.474 460.058 303.911V303.911Z" fill="#C1905B"/>
<path d="M705.867 268.62C705.867 268.62 701.616 310.904 679.923 339.749L683.412 324.999L657.25 360.071L659.321 334.286C659.212 334.395 684.175 312.543 705.867 268.62V268.62Z" fill="#C1905B"/>
<path d="M570.592 317.35C570.592 317.35 552.06 322.595 533.965 310.248C515.87 297.902 515.87 297.902 515.87 297.902L522.084 310.904C522.084 310.904 493.088 289.27 470.306 286.211C447.523 283.152 438.803 286.211 438.803 286.211L434.442 307.735C434.442 307.735 474.557 291.346 506.278 316.695C537.999 342.043 573.099 357.667 573.099 357.667L570.592 317.35Z" fill="#C1905B"/>
<path d="M643.516 173.454C643.516 173.454 625.748 169.193 614.847 155.973C614.847 155.973 623.459 205.031 636.649 215.083C636.649 215.083 615.283 213.444 595.117 142.862L602.53 122.43L611.468 130.078C611.468 130.078 614.302 141.66 619.535 139.693C624.767 137.726 619.317 162.31 643.516 173.454V173.454Z" fill="#C1905B"/>
<path d="M696.058 96.2072C696.058 96.2072 687.337 128.767 676.545 135.432C665.645 142.097 643.734 142.861 643.734 142.861C643.734 142.861 664.773 163.839 686.683 146.03C686.683 146.03 676.436 160.125 665.645 161.326C665.645 161.326 674.256 164.932 679.816 161.326C679.816 161.326 668.588 180.228 650.929 181.649C650.929 181.649 668.915 187.877 687.882 175.53C706.849 163.184 713.717 129.422 713.717 129.422C713.717 129.422 705.977 135.65 700.854 130.078C695.621 124.615 696.058 96.2072 696.058 96.2072V96.2072Z" fill="#C1905B"/>
<path d="M613.759 100.141C613.759 100.141 605.801 96.5349 604.82 82.2218L602.531 100.141L598.389 111.831C598.389 111.831 608.853 129.532 609.725 129.422C610.597 129.313 608.853 110.739 613.759 100.141V100.141Z" fill="#C1905B"/>
<path d="M695.294 54.9066C695.294 54.9066 709.465 69.2197 709.792 82.2217C710.119 95.2237 702.379 126.8 713.607 127.128C713.607 127.128 703.906 137.726 697.692 129.422C691.479 121.118 692.46 102.326 692.46 102.326C692.46 102.326 706.304 73.5902 695.294 54.9066V54.9066Z" fill="#C1905B"/>
<path d="M697.693 166.134C697.693 166.134 710.883 193.558 703.471 219.671C703.471 219.671 716.66 213.116 719.385 200.879C719.385 200.879 720.694 265.452 688.21 299.432L676.546 318.989C676.546 318.989 696.712 320.628 709.575 301.398C722.438 282.168 738.462 230.707 736.936 209.619C735.409 188.532 714.807 139.693 714.807 139.693L697.693 166.134Z" fill="#C1905B"/>
<path d="M433.024 251.248C433.024 251.248 413.621 318.661 393.89 324.999H405.99C405.99 324.999 398.36 347.288 378.085 360.071C357.809 372.745 359.662 412.188 359.662 412.188C359.662 412.188 366.421 378.755 383.644 372.527C400.867 366.299 448.067 320.628 433.024 251.248Z" fill="#FFE7CF"/>
<path d="M705.868 265.78C705.868 265.78 674.147 310.358 651.801 318.989L659.213 305.769C659.213 305.769 643.081 321.612 633.161 325.108C623.241 328.604 623.241 328.604 623.241 328.604L610.27 360.181C610.379 360.071 691.152 336.034 705.868 265.78V265.78Z" fill="#FFE7CF"/>
<path d="M608.743 181.649L591.302 164.823C591.302 164.823 579.966 172.58 546.174 173.563C512.491 174.547 395.309 168.21 361.189 193.558C361.189 193.558 383.754 171.16 421.797 167.117C459.84 163.074 571.572 162.419 580.511 157.393C589.449 152.367 597.843 145.593 597.843 145.593L608.743 181.649Z" fill="#FFE7CF"/>
<path d="M592.284 56.2179C592.284 56.2179 585.089 75.994 588.577 84.5164C592.066 93.0387 592.284 100.25 591.085 105.822C589.886 111.504 589.995 121.446 589.995 121.446C589.995 121.446 587.051 114.672 587.16 111.831C587.269 108.991 584.98 96.3165 584.98 96.3165C584.98 96.3165 580.729 80.9108 581.492 77.4144C582.146 73.8088 592.284 56.2179 592.284 56.2179Z" fill="#FFE7CF"/>
<path d="M630.327 92.8202C631.308 93.0387 648.858 93.6943 647.877 97.8462C646.896 101.998 634.796 113.798 630.327 111.394C625.858 108.991 617.246 99.1573 618.009 98.611C618.882 98.1739 625.422 91.7276 630.327 92.8202Z" fill="#624B68"/>
<path d="M643.735 96.2072C644.28 96.535 626.076 97.6276 625.313 99.5943C624.55 101.561 630.327 111.394 630.327 111.394C630.327 111.394 617.792 100.25 618.01 97.6276C618.119 95.1146 638.067 92.6016 643.735 96.2072V96.2072Z" fill="white"/>
<path d="M703.251 135.65C700.417 135.65 697.91 134.448 695.948 132.045C686.464 120.135 692.024 98.2831 695.839 83.7515C696.166 82.4404 696.493 81.2385 696.711 80.1459C699.763 67.9087 691.696 55.9994 691.587 55.8901C690.606 54.4697 690.933 52.503 692.351 51.5197C693.768 50.5363 695.73 50.8641 696.711 52.2845C697.147 52.8308 706.521 66.5976 702.815 81.5663C702.488 82.7682 702.161 83.97 701.834 85.2812C698.455 98.6109 693.223 118.606 700.853 128.111C701.725 129.313 702.815 129.532 704.341 129.204C713.498 127.019 729.74 103.637 732.792 88.3404C734.754 78.7255 733.664 77.6329 730.612 74.2458C727.887 71.2958 724.18 67.2532 720.474 57.3105C712.953 37.0973 696.82 29.3398 654.089 25.5157C607.107 21.2545 587.05 69.1106 586.178 71.1866C583.235 78.3977 584.979 84.9534 586.832 91.8368C588.14 96.7535 589.557 101.889 588.903 107.024C588.14 113.361 589.557 117.95 590.429 118.606C590.429 118.496 592.719 117.95 597.188 110.302C602.202 101.561 601.875 90.7442 601.439 80.3644C601.003 68.455 600.676 57.2012 607.87 48.8974C608.961 47.5863 611.032 47.477 612.231 48.5696C613.539 49.6622 613.648 51.7382 612.558 52.9401C606.998 59.2772 607.325 69.3291 607.652 80.0367C607.979 90.8534 608.415 103.091 602.529 113.361C599.259 119.043 594.245 126.472 588.358 124.506C582.363 122.539 581.927 112.159 582.581 106.259C583.017 102.326 581.927 98.0646 580.619 93.4757C578.657 86.1552 576.477 77.9607 580.183 68.7828C588.358 48.6789 613.321 15.573 654.416 19.2878C700.417 23.4397 717.749 32.1806 726.361 55.1253C729.631 63.8661 732.683 67.2532 735.19 69.9847C739.332 74.4644 741.294 77.4144 738.896 89.5423C735.626 106.041 718.294 132.154 705.867 135.213C704.995 135.541 704.123 135.65 703.251 135.65V135.65Z" fill="#3F0F33"/>
<path d="M663.246 145.593C659.648 145.593 655.288 143.954 649.838 140.676C645.041 137.726 640.245 134.12 636.757 131.389C635.558 130.406 634.141 129.422 633.269 128.767C632.288 129.422 630.762 130.843 629.454 131.935C624.657 136.196 619.752 140.676 615.174 139.693C611.794 138.928 609.396 135.541 608.197 129.641C605.908 118.824 607.652 99.3756 615.501 93.5848C616.918 92.6015 618.88 92.9293 619.861 94.2404C620.842 95.6608 620.515 97.6275 619.207 98.6108C615.283 101.452 612.667 114.344 613.866 125.052C614.52 131.389 616.155 133.246 616.591 133.465C618.226 133.683 623.24 129.094 625.42 127.237C629.454 123.631 631.852 121.446 634.577 122.211C635.776 122.539 636.975 123.413 640.681 126.254C644.06 128.876 648.639 132.372 653.108 135.104C660.302 139.474 663.355 139.365 664.663 138.928C672.729 135.978 677.416 129.75 677.525 129.75C678.506 128.33 680.469 128.111 681.886 129.094C683.303 130.078 683.521 132.044 682.54 133.465C682.322 133.793 676.762 141.222 666.843 144.828C665.644 145.374 664.445 145.593 663.246 145.593V145.593Z" fill="#3F0F33"/>
<path d="M641.01 145.921C636.105 145.921 631.636 145.811 629.347 145.593C622.152 144.719 619.863 137.617 619.645 133.902C619.536 132.154 620.844 130.734 622.588 130.624C624.223 130.515 625.749 131.826 625.858 133.574C625.858 133.793 626.294 138.928 630.11 139.365C636.323 140.13 661.395 139.365 661.722 139.365C663.466 139.256 664.883 140.676 664.992 142.424C664.992 144.173 663.684 145.593 661.94 145.702C661.177 145.593 650.276 145.921 641.01 145.921Z" fill="#3F0F33"/>
<path d="M631.306 114.891C630.979 114.891 630.652 114.781 630.325 114.672C619.643 111.067 614.737 97.8461 614.519 97.1905C613.974 95.7701 614.519 94.2405 615.827 93.4757C629.562 85.0626 649.511 92.9294 650.383 93.2571C651.691 93.8034 652.454 95.1146 652.345 96.5349C650.819 109.1 633.051 114.454 632.287 114.672C631.851 114.891 631.524 114.891 631.306 114.891V114.891ZM621.387 97.6276C623.022 100.796 626.401 106.259 631.306 108.444C635.34 107.024 642.861 103.418 645.259 98.2831C640.463 96.7535 629.78 94.2405 621.387 97.6276V97.6276Z" fill="#3F0F33"/>
<path d="M632.507 128.002C630.981 128.002 629.564 126.8 629.455 125.161C628.038 111.722 628.038 111.722 630 110.52C631.526 109.646 633.379 110.193 634.251 111.722C634.578 112.378 634.687 113.033 634.578 113.689C634.578 114.891 635.123 120.026 635.559 124.506C635.777 126.254 634.469 127.783 632.834 128.002C632.725 128.002 632.616 128.002 632.507 128.002V128.002Z" fill="#3F0F33"/>
<path d="M669.461 80.1461C673.314 80.1461 676.437 77.0154 676.437 73.1534C676.437 69.2915 673.314 66.1608 669.461 66.1608C665.608 66.1608 662.484 69.2915 662.484 73.1534C662.484 77.0154 665.608 80.1461 669.461 80.1461Z" fill="#3F0F33"/>
<path d="M621.824 80.1459C625.677 80.1459 628.8 77.0151 628.8 73.1532C628.8 69.2912 625.677 66.1605 621.824 66.1605C617.971 66.1605 614.848 69.2912 614.848 73.1532C614.848 77.0151 617.971 80.1459 621.824 80.1459Z" fill="#3F0F33"/>
<path d="M309.739 389.462C304.615 389.462 299.601 388.697 294.587 387.058C264.719 377.225 248.913 341.388 248.259 339.858C247.714 338.547 248.041 337.126 249.131 336.252C250.221 335.378 251.638 335.269 252.837 336.034C252.946 336.034 265.482 343.027 295.35 328.058C315.625 317.897 319.004 296.919 322.928 272.772C324.891 260.863 326.853 248.626 331.104 236.935C344.948 198.584 366.095 178.48 403.92 167.664C430.3 160.125 491.126 158.158 535.491 156.628C556.966 155.973 573.862 155.317 580.075 154.443C596.644 151.821 599.587 122.539 599.696 122.32C599.914 120.572 601.44 119.37 603.075 119.48C604.819 119.698 606.018 121.119 605.909 122.867C605.8 124.287 602.421 157.284 581.056 160.671C574.516 161.654 557.402 162.31 535.709 162.965C491.671 164.386 431.281 166.352 405.664 173.782C370.019 183.943 350.18 202.955 337.099 239.12C333.066 250.264 331.104 262.283 329.251 273.865C325.218 298.667 321.511 322.158 298.293 333.739C278.127 343.791 264.937 344.665 257.415 343.682C263.193 354.062 276.71 374.603 296.876 381.158C309.63 385.31 323.146 383.344 337.099 375.149C338.625 374.275 340.478 374.821 341.351 376.242C342.223 377.771 341.678 379.629 340.26 380.503C329.578 386.403 319.549 389.462 309.739 389.462V389.462Z" fill="#3F0F33"/>
<path d="M383.645 454.8H351.27C346.692 454.8 342.986 451.413 342.331 446.605L334.483 390.992C333.284 382.36 335.246 373.619 340.042 366.518L350.071 351.658C347.564 339.53 331.431 254.307 358.464 214.755C365.877 203.829 376.015 197.382 388.55 195.416C390.294 195.197 391.82 196.29 392.148 198.038C392.475 199.786 391.275 201.316 389.531 201.644C378.74 203.282 370.019 208.964 363.588 218.36C336.554 257.913 356.284 350.784 356.393 351.767C356.611 352.641 356.393 353.516 355.957 354.171L345.166 370.123C341.35 375.805 339.606 383.125 340.696 390.227L348.545 445.841C348.763 447.479 349.962 448.572 351.379 448.572H383.754C385.28 448.572 386.043 447.37 386.261 446.824C386.697 445.731 386.915 444.202 385.825 442.891C382.228 438.52 376.778 435.242 369.692 433.057C362.934 430.981 355.521 424.644 358.464 405.742C360.754 391.32 369.583 378.099 382.664 369.577C393.129 362.693 420.925 344.556 432.807 297.028C435.532 286.211 435.641 274.629 433.243 263.485L428.992 244.255C428.665 242.616 429.646 240.868 431.39 240.54C433.134 240.212 434.769 241.196 435.096 242.944L439.347 262.174C441.964 274.192 441.854 286.757 438.911 298.557C426.485 348.49 397.162 367.61 386.043 374.821C374.379 382.36 366.531 394.051 364.569 406.725C362.716 418.307 365.005 425.19 371.436 427.048C379.721 429.561 386.152 433.494 390.621 438.848C393.02 441.798 393.565 445.95 391.929 449.446C390.294 452.724 387.133 454.8 383.645 454.8V454.8Z" fill="#3F0F33"/>
<path d="M572.989 360.836C572.662 360.836 572.335 360.836 572.008 360.727C570.918 360.399 543.884 351.221 508.239 322.267C483.604 302.163 451.011 306.315 433.788 310.685C432.153 311.123 430.409 310.03 429.972 308.391C429.536 306.752 430.627 305.004 432.262 304.567C450.575 299.978 485.457 295.498 512.163 317.35C546.828 345.649 573.643 354.608 573.97 354.717C575.605 355.264 576.477 357.012 575.932 358.651C575.605 359.962 574.406 360.836 572.989 360.836V360.836Z" fill="#3F0F33"/>
<path d="M412.531 454.8H383.645C381.9 454.8 380.483 453.379 380.483 451.631C380.483 449.883 381.9 448.463 383.645 448.463H408.934C407.299 444.092 401.958 440.378 397.161 436.99C393.346 434.368 390.076 432.074 388.223 429.342C382.773 421.148 392.474 379.629 417.437 360.508C440.764 342.699 456.897 303.146 457.115 302.709C457.769 301.07 459.622 300.306 461.148 300.961C462.783 301.617 463.546 303.474 462.892 305.004C462.238 306.643 445.887 346.632 421.252 365.425C397.706 383.344 390.294 420.929 393.455 425.737C394.654 427.485 397.597 429.561 400.759 431.746C407.626 436.553 416.129 442.453 415.693 451.631C415.584 453.489 414.166 454.8 412.531 454.8V454.8Z" fill="#3F0F33"/>
<path d="M699.546 454.8H659.213C658.014 454.8 656.924 454.144 656.379 453.052C656.27 452.724 652.564 445.513 649.403 436.007C646.133 426.174 646.678 411.861 646.678 411.314L656.052 330.789C656.27 329.041 657.796 327.839 659.54 328.058C661.285 328.276 662.484 329.806 662.266 331.554L652.891 411.861C652.891 411.861 652.455 425.409 655.398 434.15C657.578 440.596 659.976 445.95 661.176 448.681H695.295C693.332 444.748 688.863 440.815 684.612 436.991L684.176 436.663C675.782 429.015 682.323 333.849 700.636 311.997C717.968 291.456 727.888 240.977 727.997 240.54C727.997 240.431 728.106 240.213 728.106 240.103C739.66 208.308 721.565 160.343 715.352 149.636C708.811 138.163 710.337 129.422 710.446 129.095C710.773 127.346 712.409 126.254 714.153 126.582C715.788 126.909 716.987 128.548 716.66 130.187C716.66 130.297 715.57 137.18 720.911 146.467C727.342 157.721 746.31 208.199 734.21 242.07C733.338 246.44 723.418 294.952 705.541 316.149C688.1 336.799 684.067 424.535 688.536 432.183L688.863 432.402C695.295 438.192 701.944 444.202 702.707 451.631C702.816 452.506 702.489 453.38 701.944 454.035C701.29 454.363 700.418 454.8 699.546 454.8V454.8Z" fill="#3F0F33"/>
<path d="M643.735 176.623C643.299 176.623 642.863 176.513 642.427 176.295C622.26 167.008 616.483 140.13 616.265 139.037C615.938 137.398 617.028 135.65 618.663 135.322C620.407 134.995 622.042 136.087 622.369 137.726C622.369 137.945 627.82 162.637 645.043 170.613C646.569 171.378 647.332 173.236 646.569 174.765C646.024 175.967 644.934 176.623 643.735 176.623V176.623Z" fill="#3F0F33"/>
<path d="M615.72 454.8H579.421C578.222 454.8 577.241 454.144 576.696 453.161C576.042 451.85 559.8 421.476 566.558 399.186C570.265 386.84 570.156 375.258 569.938 363.021C569.829 355.045 569.72 346.741 570.701 338.11C571.9 328.167 570.156 308.391 565.795 282.606C563.397 268.73 563.288 254.635 565.468 240.759C565.686 239.011 567.321 237.918 569.066 238.137C570.81 238.355 571.9 239.994 571.682 241.742C569.72 254.963 569.829 268.292 572.009 281.513C575.17 300.197 578.549 325.217 576.914 338.765C575.933 346.96 576.042 355.045 576.151 362.912C576.369 375.04 576.587 387.605 572.554 400.935C567.43 417.979 578.222 442.017 581.383 448.463H612.668C612.341 445.513 611.033 440.378 605.147 434.915C597.625 427.813 603.512 391.101 605.583 380.066C611.905 345.54 625.204 302.6 642.209 295.498C643.844 294.843 645.588 295.608 646.242 297.137C646.896 298.776 646.133 300.524 644.607 301.18C633.052 305.987 619.536 338.438 611.905 380.175C606.346 410.55 607.109 428.031 609.507 430.216C620.953 440.924 618.882 451.632 618.773 452.069C618.555 453.707 617.246 454.8 615.72 454.8Z" fill="#3F0F33"/>
<path d="M643.519 224.042C642.974 224.042 642.429 223.933 641.993 223.605C600.134 199.568 594.248 145.047 594.03 142.643C593.812 140.895 595.12 139.365 596.864 139.256C598.608 139.147 600.134 140.348 600.243 142.097C600.243 142.643 606.02 195.743 645.045 218.142C646.571 219.016 647.007 220.873 646.244 222.403C645.59 223.496 644.609 224.042 643.519 224.042V224.042Z" fill="#3F0F33"/>
<path d="M613.758 360.836C612.559 360.836 611.36 360.071 610.924 358.869C610.27 357.23 611.033 355.482 612.559 354.717C658.45 335.378 688.1 306.097 700.527 267.528C701.072 265.889 702.816 265.015 704.451 265.561C706.086 266.107 706.958 267.855 706.413 269.494C693.333 309.811 662.593 340.404 614.957 360.508C614.521 360.727 614.085 360.836 613.758 360.836Z" fill="#3F0F33"/>
<path d="M683.414 181.758C682.324 181.758 681.234 181.212 680.689 180.119C679.817 178.589 680.362 176.732 681.888 175.858C707.286 161.873 708.812 133.356 708.812 133.137C708.921 131.389 710.338 130.078 712.083 130.187C713.827 130.296 715.135 131.717 715.026 133.465C715.026 134.776 713.391 165.697 684.831 181.43C684.395 181.649 683.959 181.758 683.414 181.758V181.758Z" fill="#3F0F33"/>
<path d="M611.469 133.247C611.142 133.247 610.815 133.247 610.488 133.137C597.298 128.876 596.862 112.596 596.862 111.941C596.862 110.193 598.17 108.772 599.914 108.772C601.55 108.772 603.076 110.083 603.076 111.832C603.076 112.05 603.512 124.396 612.341 127.237C613.976 127.784 614.848 129.532 614.412 131.171C614.085 132.372 612.777 133.247 611.469 133.247Z" fill="#3F0F33"/>
<defs>
<filter id="filter0_d_1181_1663" x="0" y="0.244385" width="850" height="735.756" filterUnits="userSpaceOnUse" color-interpolation-filters="sRGB">
<feFlood flood-opacity="0" result="BackgroundImageFix"/>
<feColorMatrix in="SourceAlpha" type="matrix" values="0 0 0 0 0 0 0 0 0 0 0 0 0 0 0 0 0 0 127 0" result="hardAlpha"/>
<feOffset dx="-20" dy="30"/>
<feGaussianBlur stdDeviation="50"/>
<feComposite in2="hardAlpha" operator="out"/>
<feColorMatrix type="matrix" values="0 0 0 0 0.247059 0 0 0 0 0.0588235 0 0 0 0 0.2 0 0 0 0.25 0"/>
<feBlend mode="normal" in2="BackgroundImageFix" result="effect1_dropShadow_1181_1663"/>
<feBlend mode="normal" in="SourceGraphic" in2="effect1_dropShadow_1181_1663" result="shape"/>
</filter>
</defs>
</svg>
